<svg width="4358" height="1989" xmlns="http://www.w3.org/2000/svg" xmlns:xlink="http://www.w3.org/1999/xlink" xml:space="preserve" overflow="hidden"><g transform="matrix(1 0 0 1 0 -394)"><g><path d="M1213.5 789.502C1213.5 714.39 1274.39 653.5 1349.5 653.5L1893.5 653.5C1968.61 653.5 2029.5 714.39 2029.5 789.502L2029.5 1730.5C2029.5 1805.61 1968.61 1866.5 1893.5 1866.5L1349.5 1866.5C1274.39 1866.5 1213.5 1805.61 1213.5 1730.5Z" stroke="#000000" stroke-width="6.875" stroke-linecap="butt" stroke-linejoin="miter" stroke-miterlimit="8" stroke-opacity="1" fill="#D1D1D1" fill-rule="evenodd" fill-opacity="1"/><g><g><g><path d="M419.342 1559.46C400.878 1559.5 384.876 1564.98 370.424 1576.22 357.957 1585.92 348.129 1598.65 338.625 1610.97 320.479 1634.49 303.34 1656.7 269.474 1656.7 268.108 1656.7 267 1657.81 267 1659.18L267 1669.07C267 1670.44 268.108 1671.54 269.474 1671.54 288.014 1671.54 304.076 1666.06 318.576 1654.79 328.5 1647.07 336.751 1637.42 344.499 1627.59 351.742 1636.79 360.233 1646.86 370.425 1654.79 384.924 1666.06 400.985 1671.54 419.527 1671.54 420.893 1671.54 422 1670.44 422 1669.07L422 1659.18C422 1657.81 420.893 1656.7 419.527 1656.7 416.958 1656.7 414.489 1656.58 412.107 1656.33L412.107 1638.74C412.107 1637.38 410.999 1636.27 409.633 1636.27 408.267 1636.27 407.16 1637.38 407.16 1638.74L407.16 1655.64C401.853 1654.69 397 1653.11 392.479 1651.01L392.479 1589.75C392.479 1588.39 391.372 1587.28 390.006 1587.28 388.64 1587.28 387.532 1588.39 387.532 1589.75L387.532 1648.43C382.274 1645.38 377.453 1641.58 372.852 1637.21L372.852 1607.02C372.852 1605.65 371.744 1604.55 370.378 1604.55 369.012 1604.55 367.905 1605.65 367.905 1607.02L367.905 1632.22C363.158 1627.16 358.569 1621.52 353.882 1615.5 370.804 1593.74 387.847 1574.3 419.527 1574.3 420.893 1574.3 422 1573.2 422 1571.83L422 1561.94C422 1560.56 420.893 1559.46 419.527 1559.46 419.465 1559.46 419.403 1559.46 419.342 1559.46ZM368.521 1639.99C368.615 1640.1 368.718 1640.2 368.829 1640.29 371.656 1643.02 374.593 1645.58 377.692 1647.89 381.238 1650.54 384.891 1652.8 388.67 1654.68 388.821 1654.78 388.983 1654.86 389.155 1654.92 395.44 1657.98 402.074 1659.98 409.137 1660.95 409.238 1660.98 409.341 1660.99 409.446 1661 411.928 1661.33 414.462 1661.53 417.053 1661.61L417.053 1666.56C400.693 1666.09 386.411 1660.95 373.461 1650.88 363.349 1643.02 354.858 1632.79 347.635 1623.58 348.552 1622.4 349.466 1621.21 350.375 1620.04 350.503 1619.87 350.63 1619.71 350.757 1619.54 356.455 1626.84 362.209 1633.86 368.521 1639.99ZM417.053 1569.39C401.743 1569.86 388.369 1574.73 376.239 1584.23 364.919 1593.09 355.952 1604.71 346.458 1617.02 337.142 1629.09 327.509 1641.57 315.539 1650.88 302.589 1660.95 288.307 1666.09 271.947 1666.56L271.947 1661.61C287.257 1661.14 300.631 1656.28 312.761 1646.78 324.082 1637.92 333.049 1626.3 342.542 1613.99 351.857 1601.92 361.49 1589.43 373.461 1580.12 386.411 1570.05 400.693 1564.91 417.053 1564.45L417.053 1569.39Z" fill="#4E95D9" fill-rule="nonzero" fill-opacity="1"/><path d="M296.521 1641.25C296.521 1642.62 297.628 1643.73 298.994 1643.73 300.36 1643.73 301.468 1642.62 301.468 1641.25L301.468 1631.36C301.468 1629.99 300.36 1628.89 298.994 1628.89 297.628 1628.89 296.521 1629.99 296.521 1631.36L296.521 1641.25Z" fill="#4E95D9" fill-rule="nonzero" fill-opacity="1"/><path d="M281.841 1648.51 281.841 1575.34C287.129 1576.27 291.979 1577.81 296.521 1579.91L296.521 1621.47C296.521 1622.83 297.628 1623.94 298.994 1623.94 300.36 1623.94 301.468 1622.83 301.468 1621.47L301.468 1582.48C306.656 1585.49 311.475 1589.26 316.149 1593.71L316.149 1623.99C316.149 1625.35 317.256 1626.46 318.622 1626.46 319.988 1626.46 321.095 1625.35 321.095 1623.99L321.095 1598.71C324.075 1601.9 327.027 1605.35 330.014 1609.05 330.873 1610.11 332.43 1610.27 333.492 1609.41 334.555 1608.56 334.72 1607 333.861 1605.94 324.958 1594.92 314.642 1583.45 300.378 1576.36 300.192 1576.23 299.986 1576.13 299.769 1576.06 293.874 1573.2 287.31 1571.09 279.901 1570.06 279.775 1570.03 279.645 1570.02 279.513 1570.01 277.083 1569.69 274.564 1569.48 271.947 1569.39L271.947 1564.45C288.307 1564.91 302.589 1570.05 315.539 1580.12 322.164 1585.28 328.745 1591.92 336.249 1601.04 337.116 1602.1 338.675 1602.25 339.73 1601.38 340.324 1600.89 340.632 1600.18 340.632 1599.47 340.632 1598.92 340.447 1598.36 340.068 1597.9 332.326 1588.49 325.497 1581.6 318.576 1576.22 304.076 1564.94 288.015 1559.46 269.474 1559.46 268.108 1559.46 267 1560.57 267 1561.94L267 1571.83C267 1573.2 268.108 1574.3 269.474 1574.3 272.042 1574.3 274.512 1574.42 276.894 1574.66L276.894 1648.51C276.894 1649.88 278.001 1650.99 279.367 1650.99 280.733 1650.99 281.841 1649.88 281.841 1648.51Z" fill="#4E95D9" fill-rule="nonzero" fill-opacity="1"/><path d="M407.16 1582.49 407.16 1628.85C407.16 1630.22 408.267 1631.32 409.633 1631.32 410.999 1631.32 412.107 1630.22 412.107 1628.85L412.107 1582.49C412.107 1581.13 410.999 1580.02 409.633 1580.02 408.267 1580.02 407.16 1581.13 407.16 1582.49Z" fill="#4E95D9" fill-rule="nonzero" fill-opacity="1"/></g></g></g><text fill="#000000" fill-opacity="1" font-family="Aptos,Aptos_MSFontService,sans-serif" font-style="normal" font-variant="normal" font-weight="400" font-stretch="normal" font-size="83" text-anchor="start" direction="ltr" writing-mode="lr-tb" unicode-bidi="normal" text-decoration="none" transform="matrix(1 0 0 1 575.946 1652)">8k</text><g><g><g><path d="M133.536 152.342C133.501 133.878 128.018 117.876 116.78 103.424 107.085 90.957 94.3475 81.1293 82.029 71.6249 58.5112 53.4793 36.2971 36.3396 36.2971 2.4734 36.2971 1.10743 35.1896 9.37312e-15 33.8236 9.37312e-15L23.93 9.37312e-15C22.564 9.37312e-15 21.4566 1.10743 21.4566 2.4734 21.4566 21.0144 26.9377 37.076 38.2128 51.5754 45.9308 61.5004 55.5781 69.751 65.4067 77.4994 56.2132 84.7418 46.1379 93.2332 38.2128 103.425 26.9377 117.924 21.4566 133.985 21.4566 152.527 21.4566 153.893 22.564 155 23.93 155L33.8236 155C35.1896 155 36.2971 153.893 36.2971 152.527 36.2971 149.958 36.4243 147.489 36.6671 145.106L54.2563 145.106C55.6223 145.106 56.7297 143.999 56.7297 142.633 56.7297 141.267 55.6223 140.16 54.2563 140.16L37.3576 140.16C38.3114 134.853 39.8881 130 41.9918 125.479L103.246 125.479C104.612 125.479 105.72 124.372 105.72 123.006 105.72 121.64 104.612 120.532 103.246 120.532L44.5717 120.532C47.6223 115.274 51.4171 110.453 55.7865 105.852L85.9792 105.852C87.3452 105.852 88.4526 104.744 88.4526 103.378 88.4526 102.012 87.3452 100.905 85.9792 100.905L60.7791 100.905C65.841 96.1574 71.4814 91.5691 77.498 86.8821 99.2584 103.804 118.696 120.847 118.696 152.527 118.696 153.893 119.804 155 121.17 155L131.063 155C132.436 155 133.543 153.893 133.543 152.527 133.543 152.465 133.541 152.403 133.536 152.342ZM53.0061 101.521C52.8985 101.615 52.7986 101.718 52.7089 101.829 49.9806 104.656 47.4244 107.592 45.1067 110.692 42.4555 114.238 40.1971 117.891 38.3203 121.67 38.223 121.821 38.1429 121.983 38.0799 122.155 35.0208 128.44 33.0186 135.074 32.0451 142.137 32.0247 142.238 32.0125 142.341 32.0045 142.446 31.6734 144.928 31.4663 147.461 31.3872 150.053L26.4387 150.053C26.906 133.693 32.0477 119.411 42.1178 106.461 49.9822 96.3487 60.208 87.8577 69.4209 80.6353 70.6035 81.5521 71.7858 82.4656 72.9641 83.3748 73.1293 83.5025 73.2942 83.6298 73.4595 83.7571 66.1623 89.4545 59.1444 95.2086 53.0061 101.521ZM123.605 150.053C123.136 134.743 118.272 121.369 108.775 109.239 99.9117 97.9185 88.29 88.9516 75.985 79.4576 63.9115 70.1418 51.4267 60.509 42.1178 48.5388 32.0477 35.589 26.906 21.3069 26.4387 4.94681L31.3882 4.94681C31.8578 20.2569 36.7218 33.6314 46.2187 45.761 55.0817 57.0816 66.7034 66.0485 79.0078 75.5417 91.0813 84.8572 103.566 94.49 112.875 106.461 122.946 119.411 128.087 133.693 128.555 150.053L123.605 150.053Z" fill="#4E95D9" fill-rule="nonzero" fill-opacity="1" transform="matrix(-1.83697e-16 -1 1.00645 -1.84882e-16 187 1421)"/><path d="M51.7473 29.5209C50.3813 29.5209 49.2738 30.6283 49.2738 31.9943 49.2738 33.3603 50.3813 34.4677 51.7473 34.4677L61.6409 34.4677C63.0069 34.4677 64.1143 33.3603 64.1143 31.9943 64.1143 30.6283 63.0069 29.5209 61.6409 29.5209L51.7473 29.5209Z" fill="#4E95D9" fill-rule="nonzero" fill-opacity="1" transform="matrix(-1.83697e-16 -1 1.00645 -1.84882e-16 187 1421)"/><path d="M44.4883 14.8404 117.663 14.8404C116.733 20.1286 115.19 24.9788 113.089 29.5209L71.5345 29.5209C70.1685 29.5209 69.0611 30.6283 69.0611 31.9943 69.0611 33.3603 70.1685 34.4677 71.5345 34.4677L110.518 34.4677C107.513 39.6563 103.738 44.4748 99.2894 49.1485L69.0146 49.1485C67.6486 49.1485 66.5412 50.256 66.5412 51.6219 66.5412 52.9879 67.6486 54.0953 69.0146 54.0953L94.2869 54.0953C91.1021 57.0746 87.6492 60.0272 83.9543 63.0141 82.892 63.8729 82.7268 65.4301 83.5856 66.4924 84.444 67.5546 86.0019 67.7198 87.0639 66.8611 98.0774 57.9578 109.549 47.6424 116.643 33.3778 116.769 33.1914 116.869 32.9863 116.941 32.7687 119.798 26.874 121.908 20.31 122.938 12.9006 122.965 12.7746 122.982 12.645 122.99 12.5128 123.314 10.0826 123.524 7.56433 123.605 4.94714L128.555 4.94714C128.087 21.3072 122.945 35.5893 112.875 48.5391 107.724 55.1639 101.077 61.7444 91.9579 69.2484 90.9032 70.1164 90.7515 71.675 91.6195 72.73 92.1086 73.3242 92.817 73.6319 93.531 73.6316 94.084 73.6316 94.6407 73.4469 95.1011 73.0683 104.51 65.3259 111.399 58.4967 116.78 51.5758 128.056 37.0763 133.537 21.015 133.537 2.47373 133.537 1.10776 132.429 0.000329787 131.063 0.000329787L121.17 0.000329787C119.804 0.000329787 118.696 1.10776 118.696 2.47373 118.696 5.04179 118.576 7.51157 118.34 9.89395L44.4883 9.89395C43.1223 9.89395 42.0149 11.0014 42.0149 12.3674 42.0149 13.7333 43.1223 14.8404 44.4883 14.8404Z" fill="#4E95D9" fill-rule="nonzero" fill-opacity="1" transform="matrix(-1.83697e-16 -1 1.00645 -1.84882e-16 187 1421)"/><path d="M110.506 140.16 64.1499 140.16C62.7839 140.16 61.6765 141.267 61.6765 142.633 61.6765 143.999 62.7839 145.106 64.1499 145.106L110.506 145.106C111.872 145.106 112.979 143.999 112.979 142.633 112.979 141.267 111.872 140.16 110.506 140.16Z" fill="#4E95D9" fill-rule="nonzero" fill-opacity="1" transform="matrix(-1.83697e-16 -1 1.00645 -1.84882e-16 187 1421)"/></g></g></g><g><g><g><path d="M495.342 1287.46C476.878 1287.5 460.876 1292.98 446.424 1304.22 433.957 1313.92 424.129 1326.65 414.625 1338.97 396.479 1362.49 379.34 1384.7 345.473 1384.7 344.107 1384.7 343 1385.81 343 1387.18L343 1397.07C343 1398.44 344.107 1399.54 345.473 1399.54 364.014 1399.54 380.076 1394.06 394.576 1382.79 404.5 1375.07 412.751 1365.42 420.499 1355.59 427.742 1364.79 436.233 1374.86 446.425 1382.79 460.924 1394.06 476.985 1399.54 495.527 1399.54 496.893 1399.54 498 1398.44 498 1397.07L498 1387.18C498 1385.81 496.893 1384.7 495.527 1384.7 492.958 1384.7 490.489 1384.58 488.106 1384.33L488.106 1366.74C488.106 1365.38 486.999 1364.27 485.633 1364.27 484.267 1364.27 483.16 1365.38 483.16 1366.74L483.16 1383.64C477.853 1382.69 473 1381.11 468.479 1379.01L468.479 1317.75C468.479 1316.39 467.372 1315.28 466.006 1315.28 464.64 1315.28 463.532 1316.39 463.532 1317.75L463.532 1376.43C458.274 1373.38 453.453 1369.58 448.852 1365.21L448.852 1335.02C448.852 1333.65 447.744 1332.55 446.378 1332.55 445.012 1332.55 443.905 1333.65 443.905 1335.02L443.905 1360.22C439.157 1355.16 434.569 1349.52 429.882 1343.5 446.804 1321.74 463.847 1302.3 495.527 1302.3 496.893 1302.3 498 1301.2 498 1299.83L498 1289.94C498 1288.56 496.893 1287.46 495.527 1287.46 495.465 1287.46 495.403 1287.46 495.342 1287.46ZM444.521 1367.99C444.615 1368.1 444.718 1368.2 444.829 1368.29 447.656 1371.02 450.592 1373.58 453.692 1375.89 457.238 1378.54 460.891 1380.8 464.67 1382.68 464.821 1382.78 464.983 1382.86 465.155 1382.92 471.44 1385.98 478.074 1387.98 485.137 1388.96 485.238 1388.98 485.341 1388.99 485.446 1389 487.928 1389.33 490.461 1389.53 493.053 1389.61L493.053 1394.56C476.693 1394.09 462.411 1388.95 449.461 1378.88 439.349 1371.02 430.858 1360.79 423.635 1351.58 424.552 1350.4 425.466 1349.21 426.375 1348.04 426.503 1347.87 426.63 1347.71 426.757 1347.54 432.455 1354.84 438.209 1361.86 444.521 1367.99ZM493.053 1297.39C477.743 1297.86 464.369 1302.73 452.239 1312.23 440.919 1321.09 431.952 1332.71 422.458 1345.02 413.142 1357.09 403.509 1369.57 391.539 1378.88 378.589 1388.95 364.307 1394.09 347.947 1394.56L347.947 1389.61C363.257 1389.14 376.631 1384.28 388.761 1374.78 400.082 1365.92 409.049 1354.3 418.542 1341.99 427.857 1329.92 437.49 1317.43 449.461 1308.12 462.411 1298.05 476.693 1292.91 493.053 1292.45L493.053 1297.39Z" fill="#F2AA84" fill-rule="nonzero" fill-opacity="1"/><path d="M372.521 1369.25C372.521 1370.62 373.628 1371.73 374.994 1371.73 376.36 1371.73 377.468 1370.62 377.468 1369.25L377.468 1359.36C377.468 1357.99 376.36 1356.89 374.994 1356.89 373.628 1356.89 372.521 1357.99 372.521 1359.36L372.521 1369.25Z" fill="#F2AA84" fill-rule="nonzero" fill-opacity="1"/><path d="M357.84 1376.51 357.84 1303.34C363.129 1304.27 367.979 1305.81 372.521 1307.91L372.521 1349.47C372.521 1350.83 373.628 1351.94 374.994 1351.94 376.36 1351.94 377.468 1350.83 377.468 1349.47L377.468 1310.48C382.656 1313.49 387.475 1317.26 392.149 1321.71L392.149 1351.99C392.149 1353.35 393.256 1354.46 394.622 1354.46 395.988 1354.46 397.095 1353.35 397.095 1351.99L397.095 1326.71C400.075 1329.9 403.027 1333.35 406.014 1337.05 406.873 1338.11 408.43 1338.27 409.492 1337.41 410.555 1336.56 410.72 1335 409.861 1333.94 400.958 1322.92 390.642 1311.45 376.378 1304.36 376.191 1304.23 375.986 1304.13 375.769 1304.06 369.874 1301.2 363.31 1299.09 355.901 1298.06 355.775 1298.03 355.645 1298.02 355.513 1298.01 353.083 1297.69 350.564 1297.48 347.947 1297.39L347.947 1292.45C364.307 1292.91 378.589 1298.05 391.539 1308.12 398.164 1313.28 404.745 1319.92 412.248 1329.04 413.116 1330.1 414.675 1330.25 415.73 1329.38 416.324 1328.89 416.632 1328.18 416.632 1327.47 416.632 1326.92 416.447 1326.36 416.068 1325.9 408.326 1316.49 401.497 1309.6 394.576 1304.22 380.076 1292.94 364.015 1287.46 345.474 1287.46 344.108 1287.46 343 1288.57 343 1289.94L343 1299.83C343 1301.2 344.108 1302.3 345.474 1302.3 348.042 1302.3 350.512 1302.42 352.894 1302.66L352.894 1376.51C352.894 1377.88 354.001 1378.99 355.367 1378.99 356.733 1378.99 357.84 1377.88 357.84 1376.51Z" fill="#F2AA84" fill-rule="nonzero" fill-opacity="1"/><path d="M483.16 1310.49 483.16 1356.85C483.16 1358.22 484.267 1359.32 485.633 1359.32 486.999 1359.32 488.106 1358.22 488.106 1356.85L488.106 1310.49C488.106 1309.13 486.999 1308.02 485.633 1308.02 484.267 1308.02 483.16 1309.13 483.16 1310.49Z" fill="#F2AA84" fill-rule="nonzero" fill-opacity="1"/></g></g></g><text fill="#000000" fill-opacity="1" font-family="Aptos,Aptos_MSFontService,sans-serif" font-style="normal" font-variant="normal" font-weight="400" font-stretch="normal" font-size="83" text-anchor="start" direction="ltr" writing-mode="lr-tb" unicode-bidi="normal" text-decoration="none" transform="matrix(1 0 0 1 599.182 1370)">32k</text><g><g><g><path d="M187.342 1027.46C168.878 1027.5 152.876 1032.98 138.424 1044.22 125.957 1053.92 116.129 1066.65 106.625 1078.97 88.4792 1102.49 71.3395 1124.7 37.4733 1124.7 36.1073 1124.7 34.9999 1125.81 34.9999 1127.18L34.9999 1137.07C34.9999 1138.44 36.1073 1139.54 37.4733 1139.54 56.0143 1139.54 72.0759 1134.06 86.5753 1122.79 96.5003 1115.07 104.751 1105.42 112.499 1095.59 119.742 1104.79 128.233 1114.86 138.424 1122.79 152.924 1134.06 168.985 1139.54 187.527 1139.54 188.893 1139.54 190 1138.44 190 1137.07L190 1127.18C190 1125.81 188.893 1124.7 187.527 1124.7 184.958 1124.7 182.489 1124.58 180.106 1124.33L180.106 1106.74C180.106 1105.38 178.999 1104.27 177.633 1104.27 176.267 1104.27 175.16 1105.38 175.16 1106.74L175.16 1123.64C169.853 1122.69 165 1121.11 160.479 1119.01L160.479 1057.75C160.479 1056.39 159.372 1055.28 158.006 1055.28 156.64 1055.28 155.532 1056.39 155.532 1057.75L155.532 1116.43C150.274 1113.38 145.453 1109.58 140.851 1105.21L140.851 1075.02C140.851 1073.66 139.744 1072.55 138.378 1072.55 137.012 1072.55 135.905 1073.66 135.905 1075.02L135.905 1100.22C131.157 1095.16 126.569 1089.52 121.882 1083.5 138.804 1061.74 155.847 1042.3 187.527 1042.3 188.893 1042.3 190 1041.2 190 1039.83L190 1029.94C190 1028.56 188.893 1027.46 187.527 1027.46 187.465 1027.46 187.403 1027.46 187.342 1027.46ZM136.521 1107.99C136.615 1108.1 136.717 1108.2 136.829 1108.29 139.656 1111.02 142.592 1113.58 145.692 1115.89 149.238 1118.54 152.891 1120.8 156.67 1122.68 156.821 1122.78 156.983 1122.86 157.154 1122.92 163.44 1125.98 170.074 1127.98 177.137 1128.95 177.237 1128.98 177.341 1128.99 177.446 1129 179.928 1129.33 182.461 1129.53 185.053 1129.61L185.053 1134.56C168.693 1134.09 154.411 1128.95 141.461 1118.88 131.349 1111.02 122.858 1100.79 115.635 1091.58 116.552 1090.4 117.466 1089.21 118.375 1088.04 118.502 1087.87 118.63 1087.71 118.757 1087.54 124.454 1094.84 130.208 1101.86 136.521 1107.99ZM185.053 1037.4C169.743 1037.86 156.369 1042.73 144.239 1052.23 132.918 1061.09 123.951 1072.71 114.458 1085.02 105.142 1097.09 95.5089 1109.57 83.5386 1118.88 70.5889 1128.95 56.3068 1134.09 39.9467 1134.56L39.9467 1129.61C55.2567 1129.14 68.6313 1124.28 80.7608 1114.78 92.0815 1105.92 101.048 1094.3 110.542 1081.99 119.857 1069.92 129.49 1057.43 141.461 1048.12 154.411 1038.05 168.693 1032.91 185.053 1032.45L185.053 1037.4Z" fill="#4E95D9" fill-rule="nonzero" fill-opacity="1"/><path d="M64.5208 1109.25C64.5208 1110.62 65.6282 1111.73 66.9942 1111.73 68.3602 1111.73 69.4676 1110.62 69.4676 1109.25L69.4676 1099.36C69.4676 1097.99 68.3602 1096.89 66.9942 1096.89 65.6282 1096.89 64.5208 1097.99 64.5208 1099.36L64.5208 1109.25Z" fill="#4E95D9" fill-rule="nonzero" fill-opacity="1"/><path d="M49.8403 1116.51 49.8403 1043.34C55.1285 1044.27 59.9786 1045.81 64.5208 1047.91L64.5208 1089.47C64.5208 1090.83 65.6282 1091.94 66.9942 1091.94 68.3602 1091.94 69.4676 1090.83 69.4676 1089.47L69.4676 1050.48C74.6562 1053.49 79.4747 1057.26 84.1484 1061.71L84.1484 1091.99C84.1484 1093.35 85.2558 1094.46 86.6218 1094.46 87.9878 1094.46 89.0952 1093.35 89.0952 1091.99L89.0952 1066.71C92.0745 1069.9 95.0271 1073.35 98.014 1077.05 98.8728 1078.11 100.43 1078.27 101.492 1077.41 102.555 1076.56 102.72 1075 101.861 1073.94 92.9577 1062.92 82.6423 1051.45 68.3777 1044.36 68.1913 1044.23 67.9862 1044.13 67.7685 1044.06 61.8739 1041.2 55.3098 1039.09 47.9005 1038.06 47.7745 1038.03 47.6449 1038.02 47.5127 1038.01 45.0825 1037.69 42.5642 1037.48 39.947 1037.4L39.947 1032.45C56.3071 1032.91 70.5892 1038.05 83.539 1048.12 90.1637 1053.28 96.7443 1059.92 104.248 1069.04 105.116 1070.1 106.675 1070.25 107.73 1069.38 108.324 1068.89 108.632 1068.18 108.632 1067.47 108.632 1066.92 108.447 1066.36 108.068 1065.9 100.326 1056.49 93.4966 1049.6 86.5757 1044.22 72.0762 1032.94 56.0149 1027.46 37.4736 1027.46 36.1076 1027.46 35.0002 1028.57 35.0002 1029.94L35.0002 1039.83C35.0002 1041.2 36.1076 1042.3 37.4736 1042.3 40.0417 1042.3 42.5115 1042.42 44.8938 1042.66L44.8938 1116.51C44.8938 1117.88 46.0013 1118.99 47.3672 1118.99 48.7332 1118.99 49.8403 1117.88 49.8403 1116.51Z" fill="#4E95D9" fill-rule="nonzero" fill-opacity="1"/><path d="M175.16 1050.49 175.16 1096.85C175.16 1098.22 176.267 1099.32 177.633 1099.32 178.999 1099.32 180.106 1098.22 180.106 1096.85L180.106 1050.49C180.106 1049.13 178.999 1048.02 177.633 1048.02 176.267 1048.02 175.16 1049.13 175.16 1050.49Z" fill="#4E95D9" fill-rule="nonzero" fill-opacity="1"/></g></g></g><g><g><g><path d="M342.342 1027.46C323.878 1027.5 307.876 1032.98 293.424 1044.22 280.957 1053.92 271.129 1066.65 261.625 1078.97 243.479 1102.49 226.34 1124.7 192.473 1124.7 191.107 1124.7 190 1125.81 190 1127.18L190 1137.07C190 1138.44 191.107 1139.54 192.473 1139.54 211.014 1139.54 227.076 1134.06 241.575 1122.79 251.5 1115.07 259.751 1105.42 267.499 1095.59 274.742 1104.79 283.233 1114.86 293.425 1122.79 307.924 1134.06 323.985 1139.54 342.527 1139.54 343.893 1139.54 345 1138.44 345 1137.07L345 1127.18C345 1125.81 343.893 1124.7 342.527 1124.7 339.958 1124.7 337.489 1124.58 335.106 1124.33L335.106 1106.74C335.106 1105.38 333.999 1104.27 332.633 1104.27 331.267 1104.27 330.16 1105.38 330.16 1106.74L330.16 1123.64C324.853 1122.69 320 1121.11 315.479 1119.01L315.479 1057.75C315.479 1056.39 314.372 1055.28 313.006 1055.28 311.64 1055.28 310.532 1056.39 310.532 1057.75L310.532 1116.43C305.274 1113.38 300.453 1109.58 295.851 1105.21L295.851 1075.02C295.851 1073.66 294.744 1072.55 293.378 1072.55 292.012 1072.55 290.905 1073.66 290.905 1075.02L290.905 1100.22C286.157 1095.16 281.569 1089.52 276.882 1083.5 293.804 1061.74 310.847 1042.3 342.527 1042.3 343.893 1042.3 345 1041.2 345 1039.83L345 1029.94C345 1028.56 343.893 1027.46 342.527 1027.46 342.465 1027.46 342.403 1027.46 342.342 1027.46ZM291.521 1107.99C291.615 1108.1 291.718 1108.2 291.829 1108.29 294.656 1111.02 297.592 1113.58 300.692 1115.89 304.238 1118.54 307.891 1120.8 311.67 1122.68 311.821 1122.78 311.983 1122.86 312.154 1122.92 318.44 1125.98 325.074 1127.98 332.137 1128.95 332.238 1128.98 332.341 1128.99 332.446 1129 334.928 1129.33 337.461 1129.53 340.053 1129.61L340.053 1134.56C323.693 1134.09 309.411 1128.95 296.461 1118.88 286.349 1111.02 277.858 1100.79 270.635 1091.58 271.552 1090.4 272.466 1089.21 273.375 1088.04 273.502 1087.87 273.63 1087.71 273.757 1087.54 279.454 1094.84 285.209 1101.86 291.521 1107.99ZM340.053 1037.4C324.743 1037.86 311.369 1042.73 299.239 1052.23 287.918 1061.09 278.951 1072.71 269.458 1085.02 260.142 1097.09 250.509 1109.57 238.539 1118.88 225.589 1128.95 211.307 1134.09 194.947 1134.56L194.947 1129.61C210.257 1129.14 223.631 1124.28 235.761 1114.78 247.081 1105.92 256.048 1094.3 265.542 1081.99 274.857 1069.92 284.49 1057.43 296.461 1048.12 309.411 1038.05 323.693 1032.91 340.053 1032.45L340.053 1037.4Z" fill="#F2AA84" fill-rule="nonzero" fill-opacity="1"/><path d="M219.521 1109.25C219.521 1110.62 220.628 1111.73 221.994 1111.73 223.36 1111.73 224.468 1110.62 224.468 1109.25L224.468 1099.36C224.468 1097.99 223.36 1096.89 221.994 1096.89 220.628 1096.89 219.521 1097.99 219.521 1099.36L219.521 1109.25Z" fill="#F2AA84" fill-rule="nonzero" fill-opacity="1"/><path d="M204.84 1116.51 204.84 1043.34C210.128 1044.27 214.979 1045.81 219.521 1047.91L219.521 1089.47C219.521 1090.83 220.628 1091.94 221.994 1091.94 223.36 1091.94 224.468 1090.83 224.468 1089.47L224.468 1050.48C229.656 1053.49 234.475 1057.26 239.148 1061.71L239.148 1091.99C239.148 1093.35 240.256 1094.46 241.622 1094.46 242.988 1094.46 244.095 1093.35 244.095 1091.99L244.095 1066.71C247.075 1069.9 250.027 1073.35 253.014 1077.05 253.873 1078.11 255.43 1078.27 256.492 1077.41 257.555 1076.56 257.72 1075 256.861 1073.94 247.958 1062.92 237.642 1051.45 223.378 1044.36 223.191 1044.23 222.986 1044.13 222.769 1044.06 216.874 1041.2 210.31 1039.09 202.901 1038.06 202.775 1038.03 202.645 1038.02 202.513 1038.01 200.083 1037.69 197.564 1037.48 194.947 1037.4L194.947 1032.45C211.307 1032.91 225.589 1038.05 238.539 1048.12 245.164 1053.28 251.744 1059.92 259.248 1069.04 260.116 1070.1 261.675 1070.25 262.73 1069.38 263.324 1068.89 263.632 1068.18 263.632 1067.47 263.632 1066.92 263.447 1066.36 263.068 1065.9 255.326 1056.49 248.497 1049.6 241.576 1044.22 227.076 1032.94 211.015 1027.46 192.474 1027.46 191.108 1027.46 190 1028.57 190 1029.94L190 1039.83C190 1041.2 191.108 1042.3 192.474 1042.3 195.042 1042.3 197.511 1042.42 199.894 1042.66L199.894 1116.51C199.894 1117.88 201.001 1118.99 202.367 1118.99 203.733 1118.99 204.84 1117.88 204.84 1116.51Z" fill="#F2AA84" fill-rule="nonzero" fill-opacity="1"/><path d="M330.16 1050.49 330.16 1096.85C330.16 1098.22 331.267 1099.32 332.633 1099.32 333.999 1099.32 335.106 1098.22 335.106 1096.85L335.106 1050.49C335.106 1049.13 333.999 1048.02 332.633 1048.02 331.267 1048.02 330.16 1049.13 330.16 1050.49Z" fill="#F2AA84" fill-rule="nonzero" fill-opacity="1"/></g></g></g><g><g><g><path d="M495.342 1027.46C476.878 1027.5 460.876 1032.98 446.424 1044.22 433.957 1053.92 424.129 1066.65 414.625 1078.97 396.479 1102.49 379.339 1124.7 345.473 1124.7 344.107 1124.7 343 1125.81 343 1127.18L343 1137.07C343 1138.44 344.107 1139.54 345.473 1139.54 364.014 1139.54 380.076 1134.06 394.575 1122.79 404.5 1115.07 412.751 1105.42 420.499 1095.59 427.742 1104.79 436.233 1114.86 446.424 1122.79 460.924 1134.06 476.985 1139.54 495.527 1139.54 496.892 1139.54 498 1138.44 498 1137.07L498 1127.18C498 1125.81 496.892 1124.7 495.527 1124.7 492.958 1124.7 490.489 1124.58 488.106 1124.33L488.106 1106.74C488.106 1105.38 486.999 1104.27 485.633 1104.27 484.267 1104.27 483.159 1105.38 483.159 1106.74L483.159 1123.64C477.853 1122.69 473 1121.11 468.479 1119.01L468.479 1057.75C468.479 1056.39 467.372 1055.28 466.006 1055.28 464.64 1055.28 463.532 1056.39 463.532 1057.75L463.532 1116.43C458.274 1113.38 453.453 1109.58 448.851 1105.21L448.851 1075.02C448.851 1073.66 447.744 1072.55 446.378 1072.55 445.012 1072.55 443.905 1073.66 443.905 1075.02L443.905 1100.22C439.157 1095.16 434.569 1089.52 429.882 1083.5 446.804 1061.74 463.847 1042.3 495.527 1042.3 496.892 1042.3 498 1041.2 498 1039.83L498 1029.94C498 1028.56 496.892 1027.46 495.527 1027.46 495.465 1027.46 495.403 1027.46 495.342 1027.46ZM444.521 1107.99C444.615 1108.1 444.717 1108.2 444.829 1108.29 447.656 1111.02 450.592 1113.58 453.692 1115.89 457.238 1118.54 460.891 1120.8 464.67 1122.68 464.821 1122.78 464.983 1122.86 465.154 1122.92 471.44 1125.98 478.074 1127.98 485.137 1128.95 485.237 1128.98 485.341 1128.99 485.446 1129 487.928 1129.33 490.461 1129.53 493.053 1129.61L493.053 1134.56C476.693 1134.09 462.411 1128.95 449.461 1118.88 439.349 1111.02 430.858 1100.79 423.635 1091.58 424.552 1090.4 425.466 1089.21 426.375 1088.04 426.502 1087.87 426.63 1087.71 426.757 1087.54 432.454 1094.84 438.208 1101.86 444.521 1107.99ZM493.053 1037.4C477.743 1037.86 464.369 1042.73 452.239 1052.23 440.918 1061.09 431.951 1072.71 422.458 1085.02 413.142 1097.09 403.509 1109.57 391.539 1118.88 378.589 1128.95 364.307 1134.09 347.947 1134.56L347.947 1129.61C363.257 1129.14 376.631 1124.28 388.761 1114.78 400.081 1105.92 409.048 1094.3 418.542 1081.99 427.857 1069.92 437.49 1057.43 449.461 1048.12 462.411 1038.05 476.693 1032.91 493.053 1032.45L493.053 1037.4Z" fill="#4E95D9" fill-rule="nonzero" fill-opacity="1"/><path d="M372.521 1109.25C372.521 1110.62 373.628 1111.73 374.994 1111.73 376.36 1111.73 377.468 1110.62 377.468 1109.25L377.468 1099.36C377.468 1097.99 376.36 1096.89 374.994 1096.89 373.628 1096.89 372.521 1097.99 372.521 1099.36L372.521 1109.25Z" fill="#4E95D9" fill-rule="nonzero" fill-opacity="1"/><path d="M357.84 1116.51 357.84 1043.34C363.128 1044.27 367.979 1045.81 372.521 1047.91L372.521 1089.47C372.521 1090.83 373.628 1091.94 374.994 1091.94 376.36 1091.94 377.468 1090.83 377.468 1089.47L377.468 1050.48C382.656 1053.49 387.475 1057.26 392.148 1061.71L392.148 1091.99C392.148 1093.35 393.256 1094.46 394.622 1094.46 395.988 1094.46 397.095 1093.35 397.095 1091.99L397.095 1066.71C400.075 1069.9 403.027 1073.35 406.014 1077.05 406.873 1078.11 408.43 1078.27 409.492 1077.41 410.555 1076.56 410.72 1075 409.861 1073.94 400.958 1062.92 390.642 1051.45 376.378 1044.36 376.191 1044.23 375.986 1044.13 375.769 1044.06 369.874 1041.2 363.31 1039.09 355.901 1038.06 355.775 1038.03 355.645 1038.02 355.513 1038.01 353.082 1037.69 350.564 1037.48 347.947 1037.4L347.947 1032.45C364.307 1032.91 378.589 1038.05 391.539 1048.12 398.164 1053.28 404.744 1059.92 412.248 1069.04 413.116 1070.1 414.675 1070.25 415.73 1069.38 416.324 1068.89 416.632 1068.18 416.632 1067.47 416.632 1066.92 416.447 1066.36 416.068 1065.9 408.326 1056.49 401.497 1049.6 394.576 1044.22 380.076 1032.94 364.015 1027.46 345.474 1027.46 344.108 1027.46 343 1028.57 343 1029.94L343 1039.83C343 1041.2 344.108 1042.3 345.474 1042.3 348.042 1042.3 350.511 1042.42 352.894 1042.66L352.894 1116.51C352.894 1117.88 354.001 1118.99 355.367 1118.99 356.733 1118.99 357.84 1117.88 357.84 1116.51Z" fill="#4E95D9" fill-rule="nonzero" fill-opacity="1"/><path d="M483.159 1050.49 483.159 1096.85C483.159 1098.22 484.267 1099.32 485.633 1099.32 486.999 1099.32 488.106 1098.22 488.106 1096.85L488.106 1050.49C488.106 1049.13 486.999 1048.02 485.633 1048.02 484.267 1048.02 483.159 1049.13 483.159 1050.49Z" fill="#4E95D9" fill-rule="nonzero" fill-opacity="1"/></g></g></g><g><g><g><path d="M650.342 1027.46C631.878 1027.5 615.876 1032.98 601.424 1044.22 588.957 1053.92 579.129 1066.65 569.625 1078.97 551.479 1102.49 534.339 1124.7 500.473 1124.7 499.107 1124.7 498 1125.81 498 1127.18L498 1137.07C498 1138.44 499.107 1139.54 500.473 1139.54 519.014 1139.54 535.076 1134.06 549.575 1122.79 559.5 1115.07 567.751 1105.42 575.499 1095.59 582.742 1104.79 591.233 1114.86 601.424 1122.79 615.924 1134.06 631.985 1139.54 650.527 1139.54 651.893 1139.54 653 1138.44 653 1137.07L653 1127.18C653 1125.81 651.893 1124.7 650.527 1124.7 647.958 1124.7 645.489 1124.58 643.106 1124.33L643.106 1106.74C643.106 1105.38 641.999 1104.27 640.633 1104.27 639.267 1104.27 638.16 1105.38 638.16 1106.74L638.16 1123.64C632.853 1122.69 628 1121.11 623.479 1119.01L623.479 1057.75C623.479 1056.39 622.372 1055.28 621.006 1055.28 619.64 1055.28 618.532 1056.39 618.532 1057.75L618.532 1116.43C613.274 1113.38 608.453 1109.58 603.851 1105.21L603.851 1075.02C603.851 1073.66 602.744 1072.55 601.378 1072.55 600.012 1072.55 598.905 1073.66 598.905 1075.02L598.905 1100.22C594.157 1095.16 589.569 1089.52 584.882 1083.5 601.804 1061.74 618.847 1042.3 650.527 1042.3 651.893 1042.3 653 1041.2 653 1039.83L653 1029.94C653 1028.56 651.893 1027.46 650.527 1027.46 650.465 1027.46 650.403 1027.46 650.342 1027.46ZM599.521 1107.99C599.615 1108.1 599.718 1108.2 599.829 1108.29 602.656 1111.02 605.592 1113.58 608.692 1115.89 612.238 1118.54 615.891 1120.8 619.67 1122.68 619.821 1122.78 619.983 1122.86 620.154 1122.92 626.44 1125.98 633.074 1127.98 640.137 1128.95 640.237 1128.98 640.341 1128.99 640.446 1129 642.928 1129.33 645.461 1129.53 648.053 1129.61L648.053 1134.56C631.693 1134.09 617.411 1128.95 604.461 1118.88 594.349 1111.02 585.858 1100.79 578.635 1091.58 579.552 1090.4 580.466 1089.21 581.375 1088.04 581.502 1087.87 581.63 1087.71 581.757 1087.54 587.454 1094.84 593.208 1101.86 599.521 1107.99ZM648.053 1037.4C632.743 1037.86 619.369 1042.73 607.239 1052.23 595.918 1061.09 586.951 1072.71 577.458 1085.02 568.142 1097.09 558.509 1109.57 546.539 1118.88 533.589 1128.95 519.307 1134.09 502.947 1134.56L502.947 1129.61C518.257 1129.14 531.631 1124.28 543.761 1114.78 555.081 1105.92 564.048 1094.3 573.542 1081.99 582.857 1069.92 592.49 1057.43 604.461 1048.12 617.411 1038.05 631.693 1032.91 648.053 1032.45L648.053 1037.4Z" fill="#F2AA84" fill-rule="nonzero" fill-opacity="1"/><path d="M527.521 1109.25C527.521 1110.62 528.628 1111.73 529.994 1111.73 531.36 1111.73 532.468 1110.62 532.468 1109.25L532.468 1099.36C532.468 1097.99 531.36 1096.89 529.994 1096.89 528.628 1096.89 527.521 1097.99 527.521 1099.36L527.521 1109.25Z" fill="#F2AA84" fill-rule="nonzero" fill-opacity="1"/><path d="M512.84 1116.51 512.84 1043.34C518.128 1044.27 522.979 1045.81 527.521 1047.91L527.521 1089.47C527.521 1090.83 528.628 1091.94 529.994 1091.94 531.36 1091.94 532.468 1090.83 532.468 1089.47L532.468 1050.48C537.656 1053.49 542.475 1057.26 547.148 1061.71L547.148 1091.99C547.148 1093.35 548.256 1094.46 549.622 1094.46 550.988 1094.46 552.095 1093.35 552.095 1091.99L552.095 1066.71C555.075 1069.9 558.027 1073.35 561.014 1077.05 561.873 1078.11 563.43 1078.27 564.492 1077.41 565.555 1076.56 565.72 1075 564.861 1073.94 555.958 1062.92 545.642 1051.45 531.378 1044.36 531.191 1044.23 530.986 1044.13 530.769 1044.06 524.874 1041.2 518.31 1039.09 510.901 1038.06 510.775 1038.03 510.645 1038.02 510.513 1038.01 508.082 1037.69 505.564 1037.48 502.947 1037.4L502.947 1032.45C519.307 1032.91 533.589 1038.05 546.539 1048.12 553.164 1053.28 559.744 1059.92 567.248 1069.04 568.116 1070.1 569.675 1070.25 570.73 1069.38 571.324 1068.89 571.632 1068.18 571.632 1067.47 571.632 1066.92 571.447 1066.36 571.068 1065.9 563.326 1056.49 556.497 1049.6 549.576 1044.22 535.076 1032.94 519.015 1027.46 500.474 1027.46 499.108 1027.46 498 1028.57 498 1029.94L498 1039.83C498 1041.2 499.108 1042.3 500.474 1042.3 503.042 1042.3 505.511 1042.42 507.894 1042.66L507.894 1116.51C507.894 1117.88 509.001 1118.99 510.367 1118.99 511.733 1118.99 512.84 1117.88 512.84 1116.51Z" fill="#F2AA84" fill-rule="nonzero" fill-opacity="1"/><path d="M638.16 1050.49 638.16 1096.85C638.16 1098.22 639.267 1099.32 640.633 1099.32 641.999 1099.32 643.106 1098.22 643.106 1096.85L643.106 1050.49C643.106 1049.13 641.999 1048.02 640.633 1048.02 639.267 1048.02 638.16 1049.13 638.16 1050.49Z" fill="#F2AA84" fill-rule="nonzero" fill-opacity="1"/></g></g></g><text fill="#000000" fill-opacity="1" font-family="Aptos,Aptos_MSFontService,sans-serif" font-style="normal" font-variant="normal" font-weight="400" font-stretch="normal" font-size="83" text-anchor="start" direction="ltr" writing-mode="lr-tb" unicode-bidi="normal" text-decoration="none" transform="matrix(1 0 0 1 739.921 1110)">131k</text><path d="M3.4375-1.31831e-05 3.43777 71.1864-3.43723 71.1864-3.4375 1.31831e-05ZM13.7503 66.603 0.000360892 94.1031-13.7497 66.6031Z" fill="#156082" fill-rule="nonzero" fill-opacity="1" transform="matrix(1 0 0 -1 349.5 1538.6)"/><path d="M3.4375-1.31831e-05 3.43777 71.1864-3.43723 71.1864-3.4375 1.31831e-05ZM13.7503 66.603 0.000360892 94.1031-13.7497 66.6031Z" fill="#156082" fill-rule="nonzero" fill-opacity="1" transform="matrix(1 0 0 -1 346.5 1255.6)"/><text fill="#000000" fill-opacity="1" font-family="Aptos,Aptos_MSFontService,sans-serif" font-style="normal" font-variant="normal" font-weight="700" font-stretch="normal" font-size="83" text-anchor="start" direction="ltr" writing-mode="lr-tb" unicode-bidi="normal" text-decoration="none" transform="matrix(1 0 0 1 83.2138 499)">DNA Sequence </text><text fill="#000000" fill-opacity="1" font-family="Aptos,Aptos_MSFontService,sans-serif" font-style="normal" font-variant="normal" font-weight="700" font-stretch="normal" font-size="83" text-anchor="start" direction="ltr" writing-mode="lr-tb" unicode-bidi="normal" text-decoration="none" transform="matrix(1 0 0 1 64.193 598)">Length</text><text fill="#000000" fill-opacity="1" font-family="Aptos,Aptos_MSFontService,sans-serif" font-style="normal" font-variant="normal" font-weight="700" font-stretch="normal" font-size="83" text-anchor="start" direction="ltr" writing-mode="lr-tb" unicode-bidi="normal" text-decoration="none" transform="matrix(1 0 0 1 319.714 598)">-</text><text fill="#000000" fill-opacity="1" font-family="Aptos,Aptos_MSFontService,sans-serif" font-style="normal" font-variant="normal" font-weight="700" font-stretch="normal" font-size="83" text-anchor="start" direction="ltr" writing-mode="lr-tb" unicode-bidi="normal" text-decoration="none" transform="matrix(1 0 0 1 345.289 598)">Warmup</text><rect x="1201.5" y="1958.5" width="211" height="123" stroke="#000000" stroke-width="6.875" stroke-linecap="butt" stroke-linejoin="miter" stroke-miterlimit="8" stroke-opacity="1" fill="#FFFFFF" fill-opacity="1"/><text fill="#000000" fill-opacity="1" font-family="Aptos,Aptos_MSFontService,sans-serif" font-style="normal" font-variant="normal" font-weight="400" font-stretch="normal" font-size="73" text-anchor="start" direction="ltr" writing-mode="lr-tb" unicode-bidi="normal" text-decoration="none" transform="matrix(1 0 0 1 1233.89 2043)">A</text><rect x="1307.5" y="1959.5" width="211" height="122" stroke="#000000" stroke-width="6.875" stroke-linecap="butt" stroke-linejoin="miter" stroke-miterlimit="8" stroke-opacity="1" fill="#FFFFFF" fill-opacity="1"/><text fill="#000000" fill-opacity="1" font-family="Aptos,Aptos_MSFontService,sans-serif" font-style="normal" font-variant="normal" font-weight="400" font-stretch="normal" font-size="73" text-anchor="start" direction="ltr" writing-mode="lr-tb" unicode-bidi="normal" text-decoration="none" transform="matrix(1 0 0 1 1340.21 2043)">A</text><rect x="1406.5" y="1958.5" width="211" height="123" stroke="#000000" stroke-width="6.875" stroke-linecap="butt" stroke-linejoin="miter" stroke-miterlimit="8" stroke-opacity="1" fill="#FFFFFF" fill-opacity="1"/><text fill="#000000" fill-opacity="1" font-family="Aptos,Aptos_MSFontService,sans-serif" font-style="normal" font-variant="normal" font-weight="400" font-stretch="normal" font-size="73" text-anchor="start" direction="ltr" writing-mode="lr-tb" unicode-bidi="normal" text-decoration="none" transform="matrix(1 0 0 1 1439.15 2043)">C</text><rect x="1512.5" y="1959.5" width="211" height="122" stroke="#000000" stroke-width="6.875" stroke-linecap="butt" stroke-linejoin="miter" stroke-miterlimit="8" stroke-opacity="1" fill="#FFFFFF" fill-opacity="1"/><text fill="#000000" fill-opacity="1" font-family="Aptos,Aptos_MSFontService,sans-serif" font-style="normal" font-variant="normal" font-weight="400" font-stretch="normal" font-size="73" text-anchor="start" direction="ltr" writing-mode="lr-tb" unicode-bidi="normal" text-decoration="none" transform="matrix(1 0 0 1 1545.47 2044)">G</text><rect x="1621.5" y="1958.5" width="211" height="123" stroke="#000000" stroke-width="6.875" stroke-linecap="butt" stroke-linejoin="miter" stroke-miterlimit="8" stroke-opacity="1" fill="#FFFFFF" fill-opacity="1"/><text fill="#000000" fill-opacity="1" font-family="Aptos,Aptos_MSFontService,sans-serif" font-style="normal" font-variant="normal" font-weight="400" font-stretch="normal" font-size="73" text-anchor="start" direction="ltr" writing-mode="lr-tb" unicode-bidi="normal" text-decoration="none" transform="matrix(1 0 0 1 1654.33 2043)">T</text><rect x="1729.5" y="1958.5" width="211" height="123" stroke="#000000" stroke-width="6.875" stroke-linecap="butt" stroke-linejoin="miter" stroke-miterlimit="8" stroke-opacity="1" fill="#FFFFFF" fill-opacity="1"/><text fill="#000000" fill-opacity="1" font-family="Aptos,Aptos_MSFontService,sans-serif" font-style="normal" font-variant="normal" font-weight="400" font-stretch="normal" font-size="73" text-anchor="start" direction="ltr" writing-mode="lr-tb" unicode-bidi="normal" text-decoration="none" transform="matrix(1 0 0 1 1761.78 2043)">T</text><rect x="1824.5" y="1959.5" width="119" height="122" stroke="#000000" stroke-width="6.875" stroke-linecap="butt" stroke-linejoin="miter" stroke-miterlimit="8" stroke-opacity="1" fill="#FFFFFF" fill-opacity="1"/><text fill="#000000" fill-opacity="1" font-family="Aptos,Aptos_MSFontService,sans-serif" font-style="normal" font-variant="normal" font-weight="400" font-stretch="normal" font-size="73" text-anchor="start" direction="ltr" writing-mode="lr-tb" unicode-bidi="normal" text-decoration="none" transform="matrix(1 0 0 1 1857.32 2043)">C</text><rect x="1943.5" y="1958.5" width="102" height="123" stroke="#000000" stroke-width="6.875" stroke-linecap="butt" stroke-linejoin="miter" stroke-miterlimit="8" stroke-opacity="1" fill="#FFFFFF" fill-opacity="1"/><text fill="#000000" fill-opacity="1" font-family="Aptos,Aptos_MSFontService,sans-serif" font-style="normal" font-variant="normal" font-weight="400" font-stretch="normal" font-size="73" text-anchor="start" direction="ltr" writing-mode="lr-tb" unicode-bidi="normal" text-decoration="none" transform="matrix(1 0 0 1 1975.95 2043)">?</text><path d="M986.5 1081.06 1097.43 1081.06 1097.43 2020.36 1094 2016.92 1178.57 2016.92 1178.57 2023.8 1090.56 2023.8 1090.56 1084.5 1094 1087.94 986.5 1087.94ZM1173.99 2006.61 1201.49 2020.36 1173.99 2034.11Z" fill="#000000" fill-rule="nonzero" fill-opacity="1"/><path d="M1304.5 1357C1304.5 1313.65 1339.65 1278.5 1383 1278.5L1876 1278.5C1919.35 1278.5 1954.5 1313.65 1954.5 1357L1954.5 1671C1954.5 1714.35 1919.35 1749.5 1876 1749.5L1383 1749.5C1339.65 1749.5 1304.5 1714.35 1304.5 1671Z" stroke="#000000" stroke-width="6.875" stroke-linecap="butt" stroke-linejoin="miter" stroke-miterlimit="8" stroke-opacity="1" fill="#C1E5F5" fill-rule="evenodd" fill-opacity="1"/><path d="M1370.5 1615.83C1370.5 1604.05 1380.05 1594.5 1391.83 1594.5L1737.17 1594.5C1748.95 1594.5 1758.5 1604.05 1758.5 1615.83L1758.5 1701.17C1758.5 1712.95 1748.95 1722.5 1737.17 1722.5L1391.83 1722.5C1380.05 1722.5 1370.5 1712.95 1370.5 1701.17Z" stroke="#000000" stroke-width="6.875" stroke-linecap="butt" stroke-linejoin="miter" stroke-miterlimit="8" stroke-opacity="1" fill="#C1E5F5" fill-rule="evenodd" fill-opacity="1"/><text fill="#000000" fill-opacity="1" font-family="Aptos,Aptos_MSFontService,sans-serif" font-style="normal" font-variant="normal" font-weight="700" font-stretch="normal" font-size="55" text-anchor="start" direction="ltr" writing-mode="lr-tb" unicode-bidi="normal" text-decoration="none" transform="matrix(1 0 0 1 1446.65 1676)">Mamba</text><text fill="#000000" fill-opacity="1" font-family="Aptos,Aptos_MSFontService,sans-serif" font-style="normal" font-variant="normal" font-weight="700" font-stretch="normal" font-size="55" text-anchor="start" direction="ltr" writing-mode="lr-tb" unicode-bidi="normal" text-decoration="none" transform="matrix(1 0 0 1 1633.42 1676)">-</text><text fill="#000000" fill-opacity="1" font-family="Aptos,Aptos_MSFontService,sans-serif" font-style="normal" font-variant="normal" font-weight="700" font-stretch="normal" font-size="55" text-anchor="start" direction="ltr" writing-mode="lr-tb" unicode-bidi="normal" text-decoration="none" transform="matrix(1 0 0 1 1652.33 1676)">2</text><path d="M3.4375-1.71189e-05 3.43775 49.5509-3.43725 49.5509-3.4375 1.71189e-05ZM13.7502 44.9675 0.000360892 72.4676-13.7498 44.9676Z" fill="#000000" fill-rule="nonzero" fill-opacity="1" transform="matrix(1 0 0 -1 1559.5 1596.97)"/><path d="M1365.5 1400.83C1365.5 1389.05 1375.05 1379.5 1386.83 1379.5L1732.17 1379.5C1743.95 1379.5 1753.5 1389.05 1753.5 1400.83L1753.5 1486.17C1753.5 1497.95 1743.95 1507.5 1732.17 1507.5L1386.83 1507.5C1375.05 1507.5 1365.5 1497.95 1365.5 1486.17Z" stroke="#000000" stroke-width="6.875" stroke-linecap="butt" stroke-linejoin="miter" stroke-miterlimit="8" stroke-opacity="1" fill="#C1E5F5" fill-rule="evenodd" fill-opacity="1"/><text fill="#000000" fill-opacity="1" font-family="Aptos,Aptos_MSFontService,sans-serif" font-style="normal" font-variant="normal" font-weight="400" font-stretch="normal" font-size="55" text-anchor="start" direction="ltr" writing-mode="lr-tb" unicode-bidi="normal" text-decoration="none" transform="matrix(1 0 0 1 1507.9 1461)">MLP</text><path d="M3.4375-1.71189e-05 3.43775 49.5509-3.43725 49.5509-3.4375 1.71189e-05ZM13.7502 44.9675 0.000360892 72.4676-13.7498 44.9676Z" fill="#000000" fill-rule="nonzero" fill-opacity="1" transform="matrix(1 0 0 -1 1554.5 1382.97)"/><path d="M1758.43 1654.24 1833.84 1654.24 1830.4 1657.68 1830.4 1443.5 1833.84 1446.94 1776.42 1446.94 1776.42 1440.06 1837.28 1440.06 1837.28 1661.12 1758.43 1661.12ZM1781 1457.25 1753.5 1443.5 1781 1429.75Z" fill="#000000" fill-rule="nonzero" fill-opacity="1"/><path d="M1803.5 1559.5C1803.5 1540.17 1817.38 1524.5 1834.5 1524.5 1851.62 1524.5 1865.5 1540.17 1865.5 1559.5 1865.5 1578.83 1851.62 1594.5 1834.5 1594.5 1817.38 1594.5 1803.5 1578.83 1803.5 1559.5Z" stroke="#000000" stroke-width="6.875" stroke-linecap="butt" stroke-linejoin="miter" stroke-miterlimit="8" stroke-opacity="1" fill="#C1E5F5" fill-rule="evenodd" fill-opacity="1"/><text fill="#000000" fill-opacity="1" font-family="Aptos,Aptos_MSFontService,sans-serif" font-style="normal" font-variant="normal" font-weight="400" font-stretch="normal" font-size="83" text-anchor="start" direction="ltr" writing-mode="lr-tb" unicode-bidi="normal" text-decoration="none" transform="matrix(1 0 0 1 1811.76 1585)">+</text><text fill="#000000" fill-opacity="1" font-family="Aptos,Aptos_MSFontService,sans-serif" font-style="normal" font-variant="normal" font-weight="400" font-stretch="normal" font-size="55" text-anchor="start" direction="ltr" writing-mode="lr-tb" unicode-bidi="normal" text-decoration="none" transform="matrix(1 0 0 1 1875.91 1564)">x7</text><path d="M1300.5 805.002C1300.5 761.646 1335.65 726.5 1379 726.5L1873 726.5C1916.35 726.5 1951.5 761.646 1951.5 805.002L1951.5 1119C1951.5 1162.35 1916.35 1197.5 1873 1197.5L1379 1197.5C1335.65 1197.5 1300.5 1162.35 1300.5 1119Z" stroke="#000000" stroke-width="6.875" stroke-linecap="butt" stroke-linejoin="miter" stroke-miterlimit="8" stroke-opacity="1" fill="#FBE3D6" fill-rule="evenodd" fill-opacity="1"/><path d="M1367.5 1063.83C1367.5 1052.05 1377.05 1042.5 1388.83 1042.5L1734.17 1042.5C1745.95 1042.5 1755.5 1052.05 1755.5 1063.83L1755.5 1149.17C1755.5 1160.95 1745.95 1170.5 1734.17 1170.5L1388.83 1170.5C1377.05 1170.5 1367.5 1160.95 1367.5 1149.17Z" stroke="#000000" stroke-width="6.875" stroke-linecap="butt" stroke-linejoin="miter" stroke-miterlimit="8" stroke-opacity="1" fill="#FBE3D6" fill-rule="evenodd" fill-opacity="1"/><text fill="#000000" fill-opacity="1" font-family="Aptos,Aptos_MSFontService,sans-serif" font-style="normal" font-variant="normal" font-weight="700" font-stretch="normal" font-size="55" text-anchor="start" direction="ltr" writing-mode="lr-tb" unicode-bidi="normal" text-decoration="none" transform="matrix(1 0 0 1 1502.83 1091)">Self</text><text fill="#000000" fill-opacity="1" font-family="Aptos,Aptos_MSFontService,sans-serif" font-style="normal" font-variant="normal" font-weight="700" font-stretch="normal" font-size="55" text-anchor="start" direction="ltr" writing-mode="lr-tb" unicode-bidi="normal" text-decoration="none" transform="matrix(1 0 0 1 1600.07 1091)">-</text><text fill="#000000" fill-opacity="1" font-family="Aptos,Aptos_MSFontService,sans-serif" font-style="normal" font-variant="normal" font-weight="700" font-stretch="normal" font-size="55" text-anchor="start" direction="ltr" writing-mode="lr-tb" unicode-bidi="normal" text-decoration="none" transform="matrix(1 0 0 1 1444.26 1157)">Attention</text><path d="M3.4375-1.71189e-05 3.43775 49.5509-3.43725 49.5509-3.4375 1.71189e-05ZM13.7502 44.9675 0.000360892 72.4676-13.7498 44.9676Z" fill="#000000" fill-rule="nonzero" fill-opacity="1" transform="matrix(1 0 0 -1 1556.5 1044.97)"/><path d="M1362.5 848.834C1362.5 837.051 1372.05 827.5 1383.83 827.5L1729.17 827.5C1740.95 827.5 1750.5 837.051 1750.5 848.834L1750.5 934.166C1750.5 945.948 1740.95 955.5 1729.17 955.5L1383.83 955.5C1372.05 955.5 1362.5 945.948 1362.5 934.166Z" stroke="#000000" stroke-width="6.875" stroke-linecap="butt" stroke-linejoin="miter" stroke-miterlimit="8" stroke-opacity="1" fill="#FBE3D6" fill-rule="evenodd" fill-opacity="1"/><text fill="#000000" fill-opacity="1" font-family="Aptos,Aptos_MSFontService,sans-serif" font-style="normal" font-variant="normal" font-weight="400" font-stretch="normal" font-size="55" text-anchor="start" direction="ltr" writing-mode="lr-tb" unicode-bidi="normal" text-decoration="none" transform="matrix(1 0 0 1 1504.7 909)">MLP</text><path d="M3.4375-1.71189e-05 3.43775 49.5509-3.43725 49.5509-3.4375 1.71189e-05ZM13.7502 44.9675 0.000360892 72.4676-13.7498 44.9676Z" fill="#000000" fill-rule="nonzero" fill-opacity="1" transform="matrix(1 0 0 -1 1551.5 830.968)"/><path d="M1755.42 1102.24 1830.84 1102.24 1827.4 1105.68 1827.4 891.5 1830.84 894.937 1773.42 894.937 1773.42 888.062 1834.28 888.062 1834.28 1109.12 1755.42 1109.12ZM1778 905.25 1750.5 891.5 1778 877.75Z" fill="#000000" fill-rule="nonzero" fill-opacity="1"/><path d="M1800.5 1007.5C1800.5 988.17 1814.83 972.5 1832.5 972.5 1850.17 972.5 1864.5 988.17 1864.5 1007.5 1864.5 1026.83 1850.17 1042.5 1832.5 1042.5 1814.83 1042.5 1800.5 1026.83 1800.5 1007.5Z" stroke="#000000" stroke-width="6.875" stroke-linecap="butt" stroke-linejoin="miter" stroke-miterlimit="8" stroke-opacity="1" fill="#FBE3D6" fill-rule="evenodd" fill-opacity="1"/><text fill="#000000" fill-opacity="1" font-family="Aptos,Aptos_MSFontService,sans-serif" font-style="normal" font-variant="normal" font-weight="400" font-stretch="normal" font-size="83" text-anchor="start" direction="ltr" writing-mode="lr-tb" unicode-bidi="normal" text-decoration="none" transform="matrix(1 0 0 1 1809.58 1033)">+</text><text fill="#000000" fill-opacity="1" font-family="Aptos,Aptos_MSFontService,sans-serif" font-style="normal" font-variant="normal" font-weight="400" font-stretch="normal" font-size="55" text-anchor="start" direction="ltr" writing-mode="lr-tb" unicode-bidi="normal" text-decoration="none" transform="matrix(1 0 0 1 1881.68 1009)">x1</text><text fill="#000000" fill-opacity="1" font-family="Aptos,Aptos_MSFontService,sans-serif" font-style="normal" font-variant="normal" font-weight="400" font-stretch="normal" font-size="55" text-anchor="start" direction="ltr" writing-mode="lr-tb" unicode-bidi="normal" text-decoration="none" transform="matrix(1 0 0 1 2062.38 1305)">xN</text><path d="M3.4375-1.71189e-05 3.43775 49.5509-3.43725 49.5509-3.4375 1.71189e-05ZM13.7502 44.9675 0.000360892 72.4676-13.7498 44.9676Z" fill="#000000" fill-rule="nonzero" fill-opacity="1" transform="matrix(1 0 0 -1 1549.5 1273.97)"/><path d="M3.4375-1.71189e-05 3.43775 49.5509-3.43725 49.5509-3.4375 1.71189e-05ZM13.7502 44.9675 0.000360892 72.4676-13.7498 44.9676Z" fill="#000000" fill-rule="nonzero" fill-opacity="1" transform="matrix(1 0 0 -1 1629.5 1958.97)"/><text fill="#000000" fill-opacity="1" font-family="Aptos,Aptos_MSFontService,sans-serif" font-style="normal" font-variant="normal" font-weight="700" font-stretch="normal" font-size="83" text-anchor="start" direction="ltr" writing-mode="lr-tb" unicode-bidi="normal" text-decoration="none" transform="matrix(1 0 0 1 1401.08 500)">HybriDNA</text><text fill="#000000" fill-opacity="1" font-family="Aptos,Aptos_MSFontService,sans-serif" font-style="normal" font-variant="normal" font-weight="700" font-stretch="normal" font-size="83" text-anchor="start" direction="ltr" writing-mode="lr-tb" unicode-bidi="normal" text-decoration="none" transform="matrix(1 0 0 1 1381.97 599)">Pretraining</text><text fill="#000000" fill-opacity="1" font-family="Aptos,Aptos_MSFontService,sans-serif" font-style="normal" font-variant="normal" font-weight="700" font-stretch="normal" font-size="83" text-anchor="start" direction="ltr" writing-mode="lr-tb" unicode-bidi="normal" text-decoration="none" transform="matrix(1 0 0 1 2363.81 499)">Echo Embedding </text><text fill="#000000" fill-opacity="1" font-family="Aptos,Aptos_MSFontService,sans-serif" font-style="normal" font-variant="normal" font-weight="700" font-stretch="normal" font-size="83" text-anchor="start" direction="ltr" writing-mode="lr-tb" unicode-bidi="normal" text-decoration="none" transform="matrix(1 0 0 1 2462.47 598)">Fine</text><text fill="#000000" fill-opacity="1" font-family="Aptos,Aptos_MSFontService,sans-serif" font-style="normal" font-variant="normal" font-weight="700" font-stretch="normal" font-size="83" text-anchor="start" direction="ltr" writing-mode="lr-tb" unicode-bidi="normal" text-decoration="none" transform="matrix(1 0 0 1 2621.88 598)">-</text><text fill="#000000" fill-opacity="1" font-family="Aptos,Aptos_MSFontService,sans-serif" font-style="normal" font-variant="normal" font-weight="700" font-stretch="normal" font-size="83" text-anchor="start" direction="ltr" writing-mode="lr-tb" unicode-bidi="normal" text-decoration="none" transform="matrix(1 0 0 1 2646.21 598)">Tuning</text><text fill="#000000" fill-opacity="1" font-family="Aptos,Aptos_MSFontService,sans-serif" font-style="normal" font-variant="normal" font-weight="700" font-stretch="normal" font-size="83" text-anchor="start" direction="ltr" writing-mode="lr-tb" unicode-bidi="normal" text-decoration="none" transform="matrix(1 0 0 1 3613.64 499)">Generative </text><text fill="#000000" fill-opacity="1" font-family="Aptos,Aptos_MSFontService,sans-serif" font-style="normal" font-variant="normal" font-weight="700" font-stretch="normal" font-size="83" text-anchor="start" direction="ltr" writing-mode="lr-tb" unicode-bidi="normal" text-decoration="none" transform="matrix(1 0 0 1 3602.41 598)">Fine</text><text fill="#000000" fill-opacity="1" font-family="Aptos,Aptos_MSFontService,sans-serif" font-style="normal" font-variant="normal" font-weight="700" font-stretch="normal" font-size="83" text-anchor="start" direction="ltr" writing-mode="lr-tb" unicode-bidi="normal" text-decoration="none" transform="matrix(1 0 0 1 3761.82 598)">-</text><text fill="#000000" fill-opacity="1" font-family="Aptos,Aptos_MSFontService,sans-serif" font-style="normal" font-variant="normal" font-weight="700" font-stretch="normal" font-size="83" text-anchor="start" direction="ltr" writing-mode="lr-tb" unicode-bidi="normal" text-decoration="none" transform="matrix(1 0 0 1 3786.15 598)">Tuning</text><rect x="2480.5" y="1951.5" width="211" height="122" stroke="#000000" stroke-width="6.875" stroke-linecap="butt" stroke-linejoin="miter" stroke-miterlimit="8" stroke-opacity="1" fill="#FFFFFF" fill-opacity="1"/><text fill="#000000" fill-opacity="1" font-family="Aptos,Aptos_MSFontService,sans-serif" font-style="normal" font-variant="normal" font-weight="400" font-stretch="normal" font-size="73" text-anchor="start" direction="ltr" writing-mode="lr-tb" unicode-bidi="normal" text-decoration="none" transform="matrix(1 0 0 1 2513.08 2035)">A</text><rect x="2586.5" y="1951.5" width="211" height="122" stroke="#000000" stroke-width="6.875" stroke-linecap="butt" stroke-linejoin="miter" stroke-miterlimit="8" stroke-opacity="1" fill="#FFFFFF" fill-opacity="1"/><text fill="#000000" fill-opacity="1" font-family="Aptos,Aptos_MSFontService,sans-serif" font-style="normal" font-variant="normal" font-weight="400" font-stretch="normal" font-size="73" text-anchor="start" direction="ltr" writing-mode="lr-tb" unicode-bidi="normal" text-decoration="none" transform="matrix(1 0 0 1 2619.39 2035)">A</text><rect x="2685.5" y="1951.5" width="112" height="122" stroke="#000000" stroke-width="6.875" stroke-linecap="butt" stroke-linejoin="miter" stroke-miterlimit="8" stroke-opacity="1" fill="#FFFFFF" fill-opacity="1"/><text fill="#000000" fill-opacity="1" font-family="Aptos,Aptos_MSFontService,sans-serif" font-style="normal" font-variant="normal" font-weight="400" font-stretch="normal" font-size="73" text-anchor="start" direction="ltr" writing-mode="lr-tb" unicode-bidi="normal" text-decoration="none" transform="matrix(1 0 0 1 2718.34 2035)">C</text><rect x="2794.5" y="1951.5" width="112" height="122" stroke="#000000" stroke-width="6.875" stroke-linecap="butt" stroke-linejoin="miter" stroke-miterlimit="8" stroke-opacity="1" fill="#FFFFFF" fill-opacity="1"/><text fill="#000000" fill-opacity="1" font-family="Aptos,Aptos_MSFontService,sans-serif" font-style="normal" font-variant="normal" font-weight="400" font-stretch="normal" font-size="73" text-anchor="start" direction="ltr" writing-mode="lr-tb" unicode-bidi="normal" text-decoration="none" transform="matrix(1 0 0 1 2827.04 2035)">G</text><text fill="#000000" fill-opacity="1" font-family="Aptos,Aptos_MSFontService,sans-serif" font-style="normal" font-variant="normal" font-weight="400" font-stretch="normal" font-size="55" text-anchor="start" direction="ltr" writing-mode="lr-tb" unicode-bidi="normal" text-decoration="none" transform="matrix(1 0 0 1 2935.79 2018)">x2</text><path d="M3.4375-1.71189e-05 3.43775 49.5509-3.43725 49.5509-3.4375 1.71189e-05ZM13.7502 44.9675 0.000360892 72.4676-13.7498 44.9676Z" fill="#000000" fill-rule="nonzero" fill-opacity="1" transform="matrix(1 0 0 -1 2693.5 1917.97)"/><path d="M2261.5 1634.33C2261.5 1613.44 2278.44 1596.5 2299.33 1596.5L3087.67 1596.5C3108.56 1596.5 3125.5 1613.44 3125.5 1634.33L3125.5 1785.67C3125.5 1806.56 3108.56 1823.5 3087.67 1823.5L2299.33 1823.5C2278.44 1823.5 2261.5 1806.56 2261.5 1785.67Z" stroke="#000000" stroke-width="6.875" stroke-linecap="butt" stroke-linejoin="miter" stroke-miterlimit="8" stroke-opacity="1" fill="#D1D1D1" fill-rule="evenodd" fill-opacity="1"/><text fill="#000000" fill-opacity="1" font-family="Aptos,Aptos_MSFontService,sans-serif" font-style="normal" font-variant="normal" font-weight="400" font-stretch="normal" font-size="83" text-anchor="start" direction="ltr" writing-mode="lr-tb" unicode-bidi="normal" text-decoration="none" transform="matrix(1 0 0 1 2516.58 1687)">HybriDNA</text><text fill="#000000" fill-opacity="1" font-family="Aptos,Aptos_MSFontService,sans-serif" font-style="normal" font-variant="normal" font-weight="400" font-stretch="normal" font-size="83" text-anchor="start" direction="ltr" writing-mode="lr-tb" unicode-bidi="normal" text-decoration="none" transform="matrix(1 0 0 1 2363.84 1786)">(Fine</text><text fill="#000000" fill-opacity="1" font-family="Aptos,Aptos_MSFontService,sans-serif" font-style="normal" font-variant="normal" font-weight="400" font-stretch="normal" font-size="83" text-anchor="start" direction="ltr" writing-mode="lr-tb" unicode-bidi="normal" text-decoration="none" transform="matrix(1 0 0 1 2538.49 1786)">-</text><text fill="#000000" fill-opacity="1" font-family="Aptos,Aptos_MSFontService,sans-serif" font-style="normal" font-variant="normal" font-weight="400" font-stretch="normal" font-size="83" text-anchor="start" direction="ltr" writing-mode="lr-tb" unicode-bidi="normal" text-decoration="none" transform="matrix(1 0 0 1 2562 1786)">Tune/Frozen)</text><path d="M3.4375-1.71189e-05 3.43775 49.5509-3.43725 49.5509-3.4375 1.71189e-05ZM13.7502 44.9675 0.000360892 72.4676-13.7498 44.9676Z" fill="#000000" fill-rule="nonzero" fill-opacity="1" transform="matrix(1 0 0 -1 2693.5 1561.97)"/><rect x="2262.5" y="1338.5" width="106" height="105" stroke="#000000" stroke-width="6.875" stroke-linecap="butt" stroke-linejoin="miter" stroke-miterlimit="8" stroke-opacity="1" fill="#FFFFFF" fill-opacity="1"/><rect x="2473.5" y="1337.5" width="106" height="106" stroke="#000000" stroke-width="6.875" stroke-linecap="butt" stroke-linejoin="miter" stroke-miterlimit="8" stroke-opacity="1" fill="#FFFFFF" fill-opacity="1"/><rect x="2577.5" y="1337.5" width="106" height="106" stroke="#000000" stroke-width="6.875" stroke-linecap="butt" stroke-linejoin="miter" stroke-miterlimit="8" stroke-opacity="1" fill="#FFFFFF" fill-opacity="1"/><rect x="2368.5" y="1337.5" width="105" height="106" stroke="#000000" stroke-width="6.875" stroke-linecap="butt" stroke-linejoin="miter" stroke-miterlimit="8" stroke-opacity="1" fill="#FFFFFF" fill-opacity="1"/><rect x="2783.5" y="1338.5" width="106" height="105" stroke="#156082" stroke-width="6.875" stroke-linecap="butt" stroke-linejoin="miter" stroke-miterlimit="8" stroke-opacity="1" fill="#FFFFFF" fill-opacity="1"/><rect x="2888.5" y="1338.5" width="105" height="105" stroke="#156082" stroke-width="6.875" stroke-linecap="butt" stroke-linejoin="miter" stroke-miterlimit="8" stroke-opacity="1" fill="#FFFFFF" fill-opacity="1"/><rect x="2678.5" y="1338.5" width="105" height="105" stroke="#156082" stroke-width="6.875" stroke-linecap="butt" stroke-linejoin="miter" stroke-miterlimit="8" stroke-opacity="1" fill="#FFFFFF" fill-opacity="1"/><rect x="2993.5" y="1337.5" width="105" height="106" stroke="#156082" stroke-width="6.875" stroke-linecap="butt" stroke-linejoin="miter" stroke-miterlimit="8" stroke-opacity="1" fill="#FFFFFF" fill-opacity="1"/><path d="M2.29167-7.87899e-06 2.29195 82.0518-2.29138 82.0518-2.29167 7.87899e-06ZM13.7503 77.4684 0.000360892 104.968-13.7497 77.4685Z" fill="#156082" fill-rule="nonzero" fill-opacity="1" transform="matrix(1 0 0 -1 2888.5 1323.47)"/><path d="M2586.5 1014C2586.5 993.29 2603.29 976.5 2624 976.5L3103 976.5C3123.71 976.5 3140.5 993.29 3140.5 1014L3140.5 1164C3140.5 1184.71 3123.71 1201.5 3103 1201.5L2624 1201.5C2603.29 1201.5 2586.5 1184.71 2586.5 1164Z" stroke="#156082" stroke-width="6.875" stroke-linecap="butt" stroke-linejoin="miter" stroke-miterlimit="8" stroke-opacity="1" fill="#FFFFFF" fill-rule="evenodd" fill-opacity="1"/><text fill="#156082" fill-opacity="1" font-family="Aptos,Aptos_MSFontService,sans-serif" font-style="normal" font-variant="normal" font-weight="400" font-stretch="normal" font-size="83" text-anchor="start" direction="ltr" writing-mode="lr-tb" unicode-bidi="normal" text-decoration="none" transform="matrix(1 0 0 1 2634.71 1066)">Downstream </text><text fill="#156082" fill-opacity="1" font-family="Aptos,Aptos_MSFontService,sans-serif" font-style="normal" font-variant="normal" font-weight="400" font-stretch="normal" font-size="83" text-anchor="start" direction="ltr" writing-mode="lr-tb" unicode-bidi="normal" text-decoration="none" transform="matrix(1 0 0 1 2688.54 1165)">MLP/CNN</text><path d="M2.29167-7.87899e-06 2.29195 82.0518-2.29138 82.0518-2.29167 7.87899e-06ZM13.7503 77.4684 0.000360892 104.968-13.7497 77.4685Z" fill="#156082" fill-rule="nonzero" fill-opacity="1" transform="matrix(1 0 0 -1 2888.5 962.469)"/><path d="M2751.5 742C2751.5 730.126 2761.13 720.5 2773 720.5L3034 720.5C3045.87 720.5 3055.5 730.126 3055.5 742L3055.5 827.999C3055.5 839.874 3045.87 849.5 3034 849.5L2773 849.5C2761.13 849.5 2751.5 839.874 2751.5 827.999Z" stroke="#156082" stroke-width="6.875" stroke-linecap="butt" stroke-linejoin="miter" stroke-miterlimit="8" stroke-opacity="1" fill="#FFFFFF" fill-rule="evenodd" fill-opacity="1"/><text fill="#156082" fill-opacity="1" font-family="Aptos,Aptos_MSFontService,sans-serif" font-style="normal" font-variant="normal" font-weight="400" font-stretch="normal" font-size="83" text-anchor="start" direction="ltr" writing-mode="lr-tb" unicode-bidi="normal" text-decoration="none" transform="matrix(1 0 0 1 2801.38 811)">Class</text><rect x="3915.5" y="1641.5" width="211" height="123" stroke="#000000" stroke-width="6.875" stroke-linecap="butt" stroke-linejoin="miter" stroke-miterlimit="8" stroke-opacity="1" fill="#FFFFFF" fill-opacity="1"/><text fill="#000000" fill-opacity="1" font-family="Aptos,Aptos_MSFontService,sans-serif" font-style="normal" font-variant="normal" font-weight="400" font-stretch="normal" font-size="73" text-anchor="start" direction="ltr" writing-mode="lr-tb" unicode-bidi="normal" text-decoration="none" transform="matrix(1 0 0 1 3947.72 1726)">A</text><rect x="4021.5" y="1641.5" width="211" height="123" stroke="#000000" stroke-width="6.875" stroke-linecap="butt" stroke-linejoin="miter" stroke-miterlimit="8" stroke-opacity="1" fill="#FFFFFF" fill-opacity="1"/><text fill="#000000" fill-opacity="1" font-family="Aptos,Aptos_MSFontService,sans-serif" font-style="normal" font-variant="normal" font-weight="400" font-stretch="normal" font-size="73" text-anchor="start" direction="ltr" writing-mode="lr-tb" unicode-bidi="normal" text-decoration="none" transform="matrix(1 0 0 1 4054.04 1726)">A</text><rect x="4120.5" y="1641.5" width="112" height="122" stroke="#000000" stroke-width="6.875" stroke-linecap="butt" stroke-linejoin="miter" stroke-miterlimit="8" stroke-opacity="1" fill="#FFFFFF" fill-opacity="1"/><text fill="#000000" fill-opacity="1" font-family="Aptos,Aptos_MSFontService,sans-serif" font-style="normal" font-variant="normal" font-weight="400" font-stretch="normal" font-size="73" text-anchor="start" direction="ltr" writing-mode="lr-tb" unicode-bidi="normal" text-decoration="none" transform="matrix(1 0 0 1 4152.98 1726)">C</text><rect x="4229.5" y="1641.5" width="112" height="122" stroke="#000000" stroke-width="6.875" stroke-linecap="butt" stroke-linejoin="miter" stroke-miterlimit="8" stroke-opacity="1" fill="#FFFFFF" fill-opacity="1"/><text fill="#000000" fill-opacity="1" font-family="Aptos,Aptos_MSFontService,sans-serif" font-style="normal" font-variant="normal" font-weight="400" font-stretch="normal" font-size="73" text-anchor="start" direction="ltr" writing-mode="lr-tb" unicode-bidi="normal" text-decoration="none" transform="matrix(1 0 0 1 4261.69 1726)">?</text><rect x="3296.5" y="1641.5" width="615" height="122" stroke="#000000" stroke-width="6.875" stroke-linecap="butt" stroke-linejoin="miter" stroke-miterlimit="8" stroke-opacity="1" fill="#FFFFFF" fill-opacity="1"/><text fill="#000000" fill-opacity="1" font-family="Aptos,Aptos_MSFontService,sans-serif" font-style="normal" font-variant="normal" font-weight="400" font-stretch="normal" font-size="73" text-anchor="start" direction="ltr" writing-mode="lr-tb" unicode-bidi="normal" text-decoration="none" transform="matrix(1 0 0 1 3328.65 1726)">Added new token</text><path d="M3.4375-1.71189e-05 3.43775 49.5509-3.43725 49.5509-3.4375 1.71189e-05ZM13.7502 44.9675 0.000360892 72.4676-13.7498 44.9676Z" fill="#000000" fill-rule="nonzero" fill-opacity="1" transform="matrix(1 0 0 -1 3818.5 1608.97)"/><path d="M3385.5 1322.33C3385.5 1301.44 3402.44 1284.5 3423.33 1284.5L4212.67 1284.5C4233.56 1284.5 4250.5 1301.44 4250.5 1322.33L4250.5 1473.67C4250.5 1494.56 4233.56 1511.5 4212.67 1511.5L3423.33 1511.5C3402.44 1511.5 3385.5 1494.56 3385.5 1473.67Z" stroke="#000000" stroke-width="6.875" stroke-linecap="butt" stroke-linejoin="miter" stroke-miterlimit="8" stroke-opacity="1" fill="#D1D1D1" fill-rule="evenodd" fill-opacity="1"/><text fill="#000000" fill-opacity="1" font-family="Aptos,Aptos_MSFontService,sans-serif" font-style="normal" font-variant="normal" font-weight="400" font-stretch="normal" font-size="83" text-anchor="start" direction="ltr" writing-mode="lr-tb" unicode-bidi="normal" text-decoration="none" transform="matrix(1 0 0 1 3641.26 1424)">HybriDNA</text><path d="M3.4375-8.24576e-06 3.43781 127.533-3.43719 127.533-3.4375 8.24576e-06ZM13.7503 122.949 0.000360892 150.449-13.7497 122.949Z" fill="#000000" fill-rule="nonzero" fill-opacity="1" transform="matrix(1 0 0 -1 3818.5 1246.95)"/><rect x="3915.5" y="962.5" width="211" height="122" stroke="#000000" stroke-width="6.875" stroke-linecap="butt" stroke-linejoin="miter" stroke-miterlimit="8" stroke-opacity="1" fill="#FFFFFF" fill-opacity="1"/><text fill="#000000" fill-opacity="1" font-family="Aptos,Aptos_MSFontService,sans-serif" font-style="normal" font-variant="normal" font-weight="400" font-stretch="normal" font-size="73" text-anchor="start" direction="ltr" writing-mode="lr-tb" unicode-bidi="normal" text-decoration="none" transform="matrix(1 0 0 1 3947.72 1046)">A</text><rect x="4021.5" y="962.5" width="211" height="122" stroke="#000000" stroke-width="6.875" stroke-linecap="butt" stroke-linejoin="miter" stroke-miterlimit="8" stroke-opacity="1" fill="#FFFFFF" fill-opacity="1"/><text fill="#000000" fill-opacity="1" font-family="Aptos,Aptos_MSFontService,sans-serif" font-style="normal" font-variant="normal" font-weight="400" font-stretch="normal" font-size="73" text-anchor="start" direction="ltr" writing-mode="lr-tb" unicode-bidi="normal" text-decoration="none" transform="matrix(1 0 0 1 4054.04 1046)">A</text><rect x="4120.5" y="961.5" width="112" height="123" stroke="#000000" stroke-width="6.875" stroke-linecap="butt" stroke-linejoin="miter" stroke-miterlimit="8" stroke-opacity="1" fill="#FFFFFF" fill-opacity="1"/><text fill="#000000" fill-opacity="1" font-family="Aptos,Aptos_MSFontService,sans-serif" font-style="normal" font-variant="normal" font-weight="400" font-stretch="normal" font-size="73" text-anchor="start" direction="ltr" writing-mode="lr-tb" unicode-bidi="normal" text-decoration="none" transform="matrix(1 0 0 1 4152.98 1046)">C</text><rect x="4229.5" y="961.5" width="112" height="123" stroke="#000000" stroke-width="6.875" stroke-linecap="butt" stroke-linejoin="miter" stroke-miterlimit="8" stroke-opacity="1" fill="#FFFFFF" fill-opacity="1"/><text fill="#156082" fill-opacity="1" font-family="Aptos,Aptos_MSFontService,sans-serif" font-style="normal" font-variant="normal" font-weight="400" font-stretch="normal" font-size="73" text-anchor="start" direction="ltr" writing-mode="lr-tb" unicode-bidi="normal" text-decoration="none" transform="matrix(1 0 0 1 4261.69 1046)">G</text><rect x="3296.5" y="961.5" width="615" height="123" stroke="#000000" stroke-width="6.875" stroke-linecap="butt" stroke-linejoin="miter" stroke-miterlimit="8" stroke-opacity="1" fill="#FFFFFF" fill-opacity="1"/><text fill="#000000" fill-opacity="1" font-family="Aptos,Aptos_MSFontService,sans-serif" font-style="normal" font-variant="normal" font-weight="400" font-stretch="normal" font-size="73" text-anchor="start" direction="ltr" writing-mode="lr-tb" unicode-bidi="normal" text-decoration="none" transform="matrix(1 0 0 1 3328.65 1046)">Added new token</text><text fill="#000000" fill-opacity="1" font-family="Aptos,Aptos_MSFontService,sans-serif" font-style="normal" font-variant="normal" font-weight="400" font-stretch="normal" font-size="83" text-anchor="start" direction="ltr" writing-mode="lr-tb" unicode-bidi="normal" text-decoration="none" transform="matrix(1 0 0 1 1343.02 2209)">Single Nucleotide </text><text fill="#000000" fill-opacity="1" font-family="Aptos,Aptos_MSFontService,sans-serif" font-style="normal" font-variant="normal" font-weight="400" font-stretch="normal" font-size="83" text-anchor="start" direction="ltr" writing-mode="lr-tb" unicode-bidi="normal" text-decoration="none" transform="matrix(1 0 0 1 1436.11 2308)">Tokenization</text><text fill="#000000" fill-opacity="1" font-family="Aptos,Aptos_MSFontService,sans-serif" font-style="normal" font-variant="normal" font-weight="400" font-stretch="normal" font-size="83" text-anchor="start" direction="ltr" writing-mode="lr-tb" unicode-bidi="normal" text-decoration="none" transform="matrix(1 0 0 1 90.6035 1893)">Two</text><text fill="#000000" fill-opacity="1" font-family="Aptos,Aptos_MSFontService,sans-serif" font-style="normal" font-variant="normal" font-weight="400" font-stretch="normal" font-size="83" text-anchor="start" direction="ltr" writing-mode="lr-tb" unicode-bidi="normal" text-decoration="none" transform="matrix(1 0 0 1 231.266 1893)">-</text><text fill="#000000" fill-opacity="1" font-family="Aptos,Aptos_MSFontService,sans-serif" font-style="normal" font-variant="normal" font-weight="400" font-stretch="normal" font-size="83" text-anchor="start" direction="ltr" writing-mode="lr-tb" unicode-bidi="normal" text-decoration="none" transform="matrix(1 0 0 1 259.545 1893)">Step Training</text><text fill="#000000" fill-opacity="1" font-family="Aptos,Aptos_MSFontService,sans-serif" font-style="normal" font-variant="normal" font-weight="400" font-stretch="normal" font-size="83" text-anchor="start" direction="ltr" writing-mode="lr-tb" unicode-bidi="normal" text-decoration="none" transform="matrix(1 0 0 1 2511.2 2209)">Echo Embedding </text><text fill="#000000" fill-opacity="1" font-family="Aptos,Aptos_MSFontService,sans-serif" font-style="normal" font-variant="normal" font-weight="400" font-stretch="normal" font-size="83" text-anchor="start" direction="ltr" writing-mode="lr-tb" unicode-bidi="normal" text-decoration="none" transform="matrix(1 0 0 1 2628.07 2308)">Repetition</text><text fill="#000000" fill-opacity="1" font-family="Aptos,Aptos_MSFontService,sans-serif" font-style="normal" font-variant="normal" font-weight="400" font-stretch="normal" font-size="83" text-anchor="start" direction="ltr" writing-mode="lr-tb" unicode-bidi="normal" text-decoration="none" transform="matrix(1 0 0 1 3533.03 1914)">Fine</text><text fill="#000000" fill-opacity="1" font-family="Aptos,Aptos_MSFontService,sans-serif" font-style="normal" font-variant="normal" font-weight="400" font-stretch="normal" font-size="83" text-anchor="start" direction="ltr" writing-mode="lr-tb" unicode-bidi="normal" text-decoration="none" transform="matrix(1 0 0 1 3683.61 1914)">-</text><text fill="#000000" fill-opacity="1" font-family="Aptos,Aptos_MSFontService,sans-serif" font-style="normal" font-variant="normal" font-weight="400" font-stretch="normal" font-size="83" text-anchor="start" direction="ltr" writing-mode="lr-tb" unicode-bidi="normal" text-decoration="none" transform="matrix(1 0 0 1 3711.68 1914)">tuning with </text><text fill="#000000" fill-opacity="1" font-family="Aptos,Aptos_MSFontService,sans-serif" font-style="normal" font-variant="normal" font-weight="400" font-stretch="normal" font-size="83" text-anchor="start" direction="ltr" writing-mode="lr-tb" unicode-bidi="normal" text-decoration="none" transform="matrix(1 0 0 1 3615.85 2013)">new tokens</text></g></g></svg>